<mxfile host="app.diagrams.net" modified="2023-02-27T09:50:05.028Z" agent="5.0 (Windows NT 10.0; Win64; x64) AppleWebKit/537.36 (KHTML, like Gecko) Chrome/110.0.0.0 Safari/537.36" etag="W_SfxYlVLym52T40Ulgn" version="20.8.23" type="github">
  <diagram id="uND3n0JbfYk_nQdqDS2R" name="Page-1">
    <mxGraphModel dx="1475" dy="1384" grid="1" gridSize="11" guides="1" tooltips="1" connect="1" arrows="1" fold="1" page="1" pageScale="1" pageWidth="850" pageHeight="1100" math="0" shadow="0">
      <root>
        <mxCell id="0" />
        <mxCell id="1" parent="0" />
        <mxCell id="AcytjInfTmPCzd0XIlV4-133" value="" style="edgeStyle=orthogonalEdgeStyle;html=1;endArrow=block;elbow=vertical;startArrow=block;startFill=1;endFill=1;strokeColor=#000000;rounded=0;fontSize=13;exitX=0.266;exitY=1.004;exitDx=0;exitDy=0;exitPerimeter=0;startSize=6;sourcePerimeterSpacing=0;jumpSize=6;strokeWidth=2;" parent="1" source="AcytjInfTmPCzd0XIlV4-87" target="AcytjInfTmPCzd0XIlV4-8" edge="1">
          <mxGeometry width="100" relative="1" as="geometry">
            <mxPoint x="240" y="600" as="sourcePoint" />
            <mxPoint x="340" y="600" as="targetPoint" />
          </mxGeometry>
        </mxCell>
        <mxCell id="AcytjInfTmPCzd0XIlV4-2" value="AWS Cloud" style="points=[[0,0],[0.25,0],[0.5,0],[0.75,0],[1,0],[1,0.25],[1,0.5],[1,0.75],[1,1],[0.75,1],[0.5,1],[0.25,1],[0,1],[0,0.75],[0,0.5],[0,0.25]];outlineConnect=0;gradientColor=none;html=1;whiteSpace=wrap;fontSize=15;fontStyle=1;shape=mxgraph.aws4.group;grIcon=mxgraph.aws4.group_aws_cloud_alt;strokeColor=#000000;fillColor=none;verticalAlign=top;align=left;spacingLeft=30;fontColor=#000000;dashed=0;strokeWidth=3;" parent="1" vertex="1">
          <mxGeometry x="-77" y="20" width="1237" height="2070" as="geometry" />
        </mxCell>
        <mxCell id="AcytjInfTmPCzd0XIlV4-3" value="MUMBAI" style="points=[[0,0],[0.25,0],[0.5,0],[0.75,0],[1,0],[1,0.25],[1,0.5],[1,0.75],[1,1],[0.75,1],[0.5,1],[0.25,1],[0,1],[0,0.75],[0,0.5],[0,0.25]];outlineConnect=0;gradientColor=none;html=1;whiteSpace=wrap;fontSize=15;fontStyle=1;shape=mxgraph.aws4.group;grIcon=mxgraph.aws4.group_region;strokeColor=#147EBA;fillColor=none;verticalAlign=top;align=left;spacingLeft=30;fontColor=#147EBA;dashed=1;strokeWidth=5;shadow=0;" parent="1" vertex="1">
          <mxGeometry x="-11" y="70" width="1061" height="1965" as="geometry" />
        </mxCell>
        <mxCell id="AcytjInfTmPCzd0XIlV4-4" value="VPC" style="points=[[0,0],[0.25,0],[0.5,0],[0.75,0],[1,0],[1,0.25],[1,0.5],[1,0.75],[1,1],[0.75,1],[0.5,1],[0.25,1],[0,1],[0,0.75],[0,0.5],[0,0.25]];outlineConnect=0;gradientColor=none;html=1;whiteSpace=wrap;fontSize=16;fontStyle=1;shape=mxgraph.aws4.group;grIcon=mxgraph.aws4.group_vpc;strokeColor=#248814;fillColor=none;verticalAlign=top;align=left;spacingLeft=30;fontColor=#009900;dashed=0;strokeWidth=3;movable=1;resizable=1;rotatable=1;deletable=1;editable=1;connectable=1;labelBackgroundColor=none;" parent="1" vertex="1">
          <mxGeometry x="55" y="111" width="874" height="1880" as="geometry" />
        </mxCell>
        <mxCell id="AcytjInfTmPCzd0XIlV4-8" value="Public subnet" style="points=[[0,0],[0.25,0],[0.5,0],[0.75,0],[1,0],[1,0.25],[1,0.5],[1,0.75],[1,1],[0.75,1],[0.5,1],[0.25,1],[0,1],[0,0.75],[0,0.5],[0,0.25]];outlineConnect=0;html=1;whiteSpace=wrap;fontSize=14;fontStyle=1;shape=mxgraph.aws4.group;grIcon=mxgraph.aws4.group_security_group;grStroke=0;fillColor=#CCFF99;verticalAlign=top;align=left;spacingLeft=30;strokeColor=#FFB366;shadow=0;strokeWidth=3;" parent="1" vertex="1">
          <mxGeometry x="160" y="690" width="290" height="550" as="geometry" />
        </mxCell>
        <mxCell id="AcytjInfTmPCzd0XIlV4-9" value="Public subnet" style="points=[[0,0],[0.25,0],[0.5,0],[0.75,0],[1,0],[1,0.25],[1,0.5],[1,0.75],[1,1],[0.75,1],[0.5,1],[0.25,1],[0,1],[0,0.75],[0,0.5],[0,0.25]];outlineConnect=0;html=1;whiteSpace=wrap;fontSize=14;fontStyle=1;shape=mxgraph.aws4.group;grIcon=mxgraph.aws4.group_security_group;grStroke=0;strokeColor=#d6b656;fillColor=#CCFF99;verticalAlign=top;align=left;spacingLeft=30;dashed=0;gradientColor=none;" parent="1" vertex="1">
          <mxGeometry x="600" y="690" width="300" height="550" as="geometry" />
        </mxCell>
        <mxCell id="AcytjInfTmPCzd0XIlV4-16" value="" style="outlineConnect=0;fontColor=#232F3E;gradientColor=none;fillColor=#D86613;strokeColor=none;dashed=0;verticalLabelPosition=bottom;verticalAlign=top;align=center;html=1;fontSize=12;fontStyle=0;aspect=fixed;pointerEvents=1;shape=mxgraph.aws4.m5_instance;" parent="1" vertex="1">
          <mxGeometry x="205" y="779" width="50" height="50" as="geometry" />
        </mxCell>
        <mxCell id="AcytjInfTmPCzd0XIlV4-17" value="" style="outlineConnect=0;fontColor=#232F3E;gradientColor=none;fillColor=#D86613;strokeColor=none;dashed=0;verticalLabelPosition=bottom;verticalAlign=top;align=center;html=1;fontSize=12;fontStyle=0;aspect=fixed;pointerEvents=1;shape=mxgraph.aws4.m5_instance;" parent="1" vertex="1">
          <mxGeometry x="341" y="780" width="48" height="48" as="geometry" />
        </mxCell>
        <mxCell id="AcytjInfTmPCzd0XIlV4-20" value="" style="outlineConnect=0;fontColor=#232F3E;gradientColor=none;fillColor=#D86613;strokeColor=none;dashed=0;verticalLabelPosition=bottom;verticalAlign=top;align=center;html=1;fontSize=12;fontStyle=0;aspect=fixed;pointerEvents=1;shape=mxgraph.aws4.m5_instance;" parent="1" vertex="1">
          <mxGeometry x="341" y="959" width="48" height="48" as="geometry" />
        </mxCell>
        <mxCell id="AcytjInfTmPCzd0XIlV4-21" value="" style="outlineConnect=0;fontColor=#232F3E;gradientColor=none;fillColor=#D86613;strokeColor=none;dashed=0;verticalLabelPosition=bottom;verticalAlign=top;align=center;html=1;fontSize=12;fontStyle=0;aspect=fixed;pointerEvents=1;shape=mxgraph.aws4.m5_instance;" parent="1" vertex="1">
          <mxGeometry x="725" y="790" width="48" height="48" as="geometry" />
        </mxCell>
        <mxCell id="AcytjInfTmPCzd0XIlV4-22" value="" style="outlineConnect=0;fontColor=#232F3E;gradientColor=none;fillColor=#D86613;strokeColor=none;dashed=0;verticalLabelPosition=bottom;verticalAlign=top;align=center;html=1;fontSize=12;fontStyle=0;aspect=fixed;pointerEvents=1;shape=mxgraph.aws4.m5_instance;" parent="1" vertex="1">
          <mxGeometry x="661" y="990" width="48" height="48" as="geometry" />
        </mxCell>
        <mxCell id="AcytjInfTmPCzd0XIlV4-23" value="" style="outlineConnect=0;fontColor=#232F3E;gradientColor=none;fillColor=#D86613;strokeColor=none;dashed=0;verticalLabelPosition=bottom;verticalAlign=top;align=center;html=1;fontSize=12;fontStyle=0;aspect=fixed;pointerEvents=1;shape=mxgraph.aws4.m5_instance;" parent="1" vertex="1">
          <mxGeometry x="724" y="1086" width="48" height="48" as="geometry" />
        </mxCell>
        <mxCell id="YEiA6fVM-5rXdiScWKsi-11" style="edgeStyle=orthogonalEdgeStyle;rounded=0;jumpSize=6;orthogonalLoop=1;jettySize=auto;html=1;entryX=0.5;entryY=1;entryDx=0;entryDy=0;entryPerimeter=0;strokeWidth=2;startArrow=block;startFill=1;startSize=6;endSize=8;sourcePerimeterSpacing=0;targetPerimeterSpacing=0;" parent="1" source="YEiA6fVM-5rXdiScWKsi-16" target="AcytjInfTmPCzd0XIlV4-130" edge="1">
          <mxGeometry relative="1" as="geometry">
            <mxPoint x="662" y="1111.9565217391305" as="sourcePoint" />
            <Array as="points">
              <mxPoint x="506" y="860" />
              <mxPoint x="506" y="600" />
              <mxPoint x="703" y="600" />
            </Array>
          </mxGeometry>
        </mxCell>
        <mxCell id="AcytjInfTmPCzd0XIlV4-25" value="" style="outlineConnect=0;fontColor=#232F3E;gradientColor=none;fillColor=#D86613;strokeColor=none;dashed=0;verticalLabelPosition=bottom;verticalAlign=top;align=center;html=1;fontSize=12;fontStyle=0;aspect=fixed;pointerEvents=1;shape=mxgraph.aws4.r5_instance;" parent="1" vertex="1">
          <mxGeometry x="341" y="1064" width="48" height="48" as="geometry" />
        </mxCell>
        <mxCell id="AcytjInfTmPCzd0XIlV4-26" value="" style="outlineConnect=0;fontColor=#232F3E;gradientColor=none;fillColor=#D86613;strokeColor=none;dashed=0;verticalLabelPosition=bottom;verticalAlign=top;align=center;html=1;fontSize=12;fontStyle=0;aspect=fixed;pointerEvents=1;shape=mxgraph.aws4.r5_instance;" parent="1" vertex="1">
          <mxGeometry x="205" y="1062" width="48" height="48" as="geometry" />
        </mxCell>
        <mxCell id="AcytjInfTmPCzd0XIlV4-27" value="" style="outlineConnect=0;fontColor=#232F3E;gradientColor=none;fillColor=#D86613;strokeColor=none;dashed=0;verticalLabelPosition=bottom;verticalAlign=top;align=center;html=1;fontSize=12;fontStyle=0;aspect=fixed;pointerEvents=1;shape=mxgraph.aws4.r5_instance;" parent="1" vertex="1">
          <mxGeometry x="206" y="956" width="48" height="48" as="geometry" />
        </mxCell>
        <mxCell id="AcytjInfTmPCzd0XIlV4-28" value="" style="outlineConnect=0;fontColor=#232F3E;gradientColor=none;fillColor=#D86613;strokeColor=none;dashed=0;verticalLabelPosition=bottom;verticalAlign=top;align=center;html=1;fontSize=12;fontStyle=0;aspect=fixed;pointerEvents=1;shape=mxgraph.aws4.m6g_instance;" parent="1" vertex="1">
          <mxGeometry x="206" y="860" width="48" height="48" as="geometry" />
        </mxCell>
        <mxCell id="AcytjInfTmPCzd0XIlV4-29" value="" style="outlineConnect=0;fontColor=#232F3E;gradientColor=none;fillColor=#D86613;strokeColor=none;dashed=0;verticalLabelPosition=bottom;verticalAlign=top;align=center;html=1;fontSize=12;fontStyle=0;aspect=fixed;pointerEvents=1;shape=mxgraph.aws4.m6g_instance;" parent="1" vertex="1">
          <mxGeometry x="790" y="990" width="48" height="48" as="geometry" />
        </mxCell>
        <mxCell id="AcytjInfTmPCzd0XIlV4-31" value="" style="outlineConnect=0;fontColor=#232F3E;gradientColor=none;fillColor=#D86613;strokeColor=none;dashed=0;verticalLabelPosition=bottom;verticalAlign=top;align=center;html=1;fontSize=12;fontStyle=0;aspect=fixed;pointerEvents=1;shape=mxgraph.aws4.r5_instance;" parent="1" vertex="1">
          <mxGeometry x="727" y="880" width="48" height="48" as="geometry" />
        </mxCell>
        <mxCell id="AcytjInfTmPCzd0XIlV4-35" value="Public subnet" style="points=[[0,0],[0.25,0],[0.5,0],[0.75,0],[1,0],[1,0.25],[1,0.5],[1,0.75],[1,1],[0.75,1],[0.5,1],[0.25,1],[0,1],[0,0.75],[0,0.5],[0,0.25]];outlineConnect=0;html=1;whiteSpace=wrap;fontSize=15;fontStyle=1;shape=mxgraph.aws4.group;grIcon=mxgraph.aws4.group_security_group;grStroke=0;strokeColor=#6c8ebf;fillColor=#dae8fc;verticalAlign=top;align=left;spacingLeft=30;dashed=0;" parent="1" vertex="1">
          <mxGeometry x="150" y="319" width="420" height="230" as="geometry" />
        </mxCell>
        <mxCell id="AcytjInfTmPCzd0XIlV4-36" value="Security group" style="fillColor=none;strokeColor=#DD3522;verticalAlign=top;fontStyle=1;fontColor=#DD3522;fontSize=14;" parent="1" vertex="1">
          <mxGeometry x="180" y="359" width="370" height="160" as="geometry" />
        </mxCell>
        <mxCell id="AcytjInfTmPCzd0XIlV4-37" value="" style="outlineConnect=0;fontColor=#232F3E;gradientColor=none;fillColor=#D86613;strokeColor=none;dashed=0;verticalLabelPosition=bottom;verticalAlign=top;align=center;html=1;fontSize=12;fontStyle=0;aspect=fixed;pointerEvents=1;shape=mxgraph.aws4.m5_instance;" parent="1" vertex="1">
          <mxGeometry x="210" y="416" width="48" height="48" as="geometry" />
        </mxCell>
        <mxCell id="AcytjInfTmPCzd0XIlV4-38" value="" style="outlineConnect=0;fontColor=#232F3E;gradientColor=none;fillColor=#D86613;strokeColor=none;dashed=0;verticalLabelPosition=bottom;verticalAlign=top;align=center;html=1;fontSize=12;fontStyle=0;aspect=fixed;pointerEvents=1;shape=mxgraph.aws4.m5_instance;" parent="1" vertex="1">
          <mxGeometry x="320" y="416" width="48" height="48" as="geometry" />
        </mxCell>
        <mxCell id="AcytjInfTmPCzd0XIlV4-39" value="" style="outlineConnect=0;fontColor=#232F3E;gradientColor=none;fillColor=#D86613;strokeColor=none;dashed=0;verticalLabelPosition=bottom;verticalAlign=top;align=center;html=1;fontSize=12;fontStyle=0;aspect=fixed;pointerEvents=1;shape=mxgraph.aws4.m5_instance;" parent="1" vertex="1">
          <mxGeometry x="450" y="420" width="48" height="48" as="geometry" />
        </mxCell>
        <mxCell id="AcytjInfTmPCzd0XIlV4-40" value="BH-1" style="text;html=1;align=center;verticalAlign=middle;resizable=0;points=[];autosize=1;fontSize=13;fontStyle=1" parent="1" vertex="1">
          <mxGeometry x="209" y="475" width="50" height="30" as="geometry" />
        </mxCell>
        <mxCell id="AcytjInfTmPCzd0XIlV4-41" value="BH-2" style="text;html=1;align=center;verticalAlign=middle;resizable=0;points=[];autosize=1;fontSize=13;fontStyle=1" parent="1" vertex="1">
          <mxGeometry x="315" y="475" width="50" height="30" as="geometry" />
        </mxCell>
        <mxCell id="AcytjInfTmPCzd0XIlV4-42" value="BH-3" style="text;html=1;align=center;verticalAlign=middle;resizable=0;points=[];autosize=1;fontSize=13;fontStyle=1" parent="1" vertex="1">
          <mxGeometry x="449" y="475" width="50" height="30" as="geometry" />
        </mxCell>
        <mxCell id="AcytjInfTmPCzd0XIlV4-43" value="LIVE-APP-O1" style="text;html=1;align=center;verticalAlign=middle;resizable=0;points=[];autosize=1;fontStyle=1" parent="1" vertex="1">
          <mxGeometry x="318" y="825" width="100" height="30" as="geometry" />
        </mxCell>
        <mxCell id="AcytjInfTmPCzd0XIlV4-44" value="LIVE-APP-O2" style="text;html=1;align=center;verticalAlign=middle;resizable=0;points=[];autosize=1;fontStyle=1" parent="1" vertex="1">
          <mxGeometry x="314" y="915" width="100" height="30" as="geometry" />
        </mxCell>
        <mxCell id="AcytjInfTmPCzd0XIlV4-46" value="LIVE-APP-O8" style="text;html=1;align=center;verticalAlign=middle;resizable=0;points=[];autosize=1;fontStyle=1" parent="1" vertex="1">
          <mxGeometry x="315" y="1118" width="100" height="30" as="geometry" />
        </mxCell>
        <mxCell id="AcytjInfTmPCzd0XIlV4-47" value="LIVE-APP-O3" style="text;html=1;align=center;verticalAlign=middle;resizable=0;points=[];autosize=1;fontStyle=1" parent="1" vertex="1">
          <mxGeometry x="315" y="1017" width="100" height="30" as="geometry" />
        </mxCell>
        <mxCell id="AcytjInfTmPCzd0XIlV4-49" value="Private subnet" style="points=[[0,0],[0.25,0],[0.5,0],[0.75,0],[1,0],[1,0.25],[1,0.5],[1,0.75],[1,1],[0.75,1],[0.5,1],[0.25,1],[0,1],[0,0.75],[0,0.5],[0,0.25]];outlineConnect=0;html=1;whiteSpace=wrap;fontSize=15;fontStyle=0;shape=mxgraph.aws4.group;grIcon=mxgraph.aws4.group_security_group;grStroke=0;strokeColor=#6c8ebf;fillColor=#dae8fc;verticalAlign=top;align=left;spacingLeft=30;dashed=0;strokeWidth=3;" parent="1" vertex="1">
          <mxGeometry x="588" y="1441" width="277" height="209" as="geometry" />
        </mxCell>
        <mxCell id="AcytjInfTmPCzd0XIlV4-51" value="Security group" style="fillColor=none;strokeColor=#DD3522;verticalAlign=top;fontStyle=1;fontColor=#DD3522;fontSize=14;" parent="1" vertex="1">
          <mxGeometry x="591.5" y="1472.5" width="270" height="146" as="geometry" />
        </mxCell>
        <mxCell id="AcytjInfTmPCzd0XIlV4-52" value="" style="outlineConnect=0;fontColor=#232F3E;gradientColor=none;fillColor=#D86613;strokeColor=none;dashed=0;verticalLabelPosition=bottom;verticalAlign=top;align=center;html=1;fontSize=12;fontStyle=0;aspect=fixed;pointerEvents=1;shape=mxgraph.aws4.m5_instance;" parent="1" vertex="1">
          <mxGeometry x="775.5" y="1518" width="48" height="48" as="geometry" />
        </mxCell>
        <mxCell id="AcytjInfTmPCzd0XIlV4-54" value="" style="outlineConnect=0;fontColor=#232F3E;gradientColor=none;fillColor=#D86613;strokeColor=none;dashed=0;verticalLabelPosition=bottom;verticalAlign=top;align=center;html=1;fontSize=12;fontStyle=0;aspect=fixed;pointerEvents=1;shape=mxgraph.aws4.m5_instance;" parent="1" vertex="1">
          <mxGeometry x="623" y="1518" width="48" height="48" as="geometry" />
        </mxCell>
        <mxCell id="AcytjInfTmPCzd0XIlV4-55" value="PROXY-1" style="text;html=1;align=center;verticalAlign=middle;resizable=0;points=[];autosize=1;fontStyle=1" parent="1" vertex="1">
          <mxGeometry x="607.5" y="1573" width="77" height="33" as="geometry" />
        </mxCell>
        <mxCell id="AcytjInfTmPCzd0XIlV4-56" value="PROXY-2" style="text;html=1;align=center;verticalAlign=middle;resizable=0;points=[];autosize=1;fontStyle=1" parent="1" vertex="1">
          <mxGeometry x="761" y="1573" width="77" height="33" as="geometry" />
        </mxCell>
        <mxCell id="AcytjInfTmPCzd0XIlV4-60" value="" style="outlineConnect=0;fontColor=#232F3E;gradientColor=none;fillColor=#D86613;strokeColor=none;dashed=0;verticalLabelPosition=bottom;verticalAlign=top;align=center;html=1;fontSize=12;fontStyle=0;aspect=fixed;pointerEvents=1;shape=mxgraph.aws4.m5_instance;" parent="1" vertex="1">
          <mxGeometry x="341" y="860" width="48" height="48" as="geometry" />
        </mxCell>
        <mxCell id="AcytjInfTmPCzd0XIlV4-61" value="LIVE-APP-11" style="text;html=1;align=center;verticalAlign=middle;resizable=0;points=[];autosize=1;fontStyle=1" parent="1" vertex="1">
          <mxGeometry x="185" y="825" width="100" height="30" as="geometry" />
        </mxCell>
        <mxCell id="AcytjInfTmPCzd0XIlV4-62" value="CSNG-DMS-App-01" style="text;html=1;align=center;verticalAlign=middle;resizable=0;points=[];autosize=1;fontStyle=1" parent="1" vertex="1">
          <mxGeometry x="180" y="915" width="130" height="30" as="geometry" />
        </mxCell>
        <mxCell id="AcytjInfTmPCzd0XIlV4-63" value="LIVE-App-11-&lt;br&gt;Dashboard" style="text;html=1;align=center;verticalAlign=middle;resizable=0;points=[];autosize=1;fontStyle=1" parent="1" vertex="1">
          <mxGeometry x="184" y="1120" width="100" height="40" as="geometry" />
        </mxCell>
        <mxCell id="AcytjInfTmPCzd0XIlV4-64" value="LIVE--App-10-&lt;br&gt;Scheduler-02" style="text;html=1;align=center;verticalAlign=middle;resizable=0;points=[];autosize=1;fontStyle=1" parent="1" vertex="1">
          <mxGeometry x="180" y="1012" width="100" height="40" as="geometry" />
        </mxCell>
        <mxCell id="AcytjInfTmPCzd0XIlV4-66" value="LIVE-App-07-MONTH-END" style="text;html=1;align=center;verticalAlign=middle;resizable=0;points=[];autosize=1;fontStyle=1" parent="1" vertex="1">
          <mxGeometry x="661.5" y="844" width="176" height="33" as="geometry" />
        </mxCell>
        <mxCell id="AcytjInfTmPCzd0XIlV4-67" value="LIVE-App-05" style="text;html=1;align=center;verticalAlign=middle;resizable=0;points=[];autosize=1;fontStyle=1" parent="1" vertex="1">
          <mxGeometry x="636" y="1036" width="99" height="33" as="geometry" />
        </mxCell>
        <mxCell id="AcytjInfTmPCzd0XIlV4-68" value="LIVE-App-06" style="text;html=1;align=center;verticalAlign=middle;resizable=0;points=[];autosize=1;fontStyle=1" parent="1" vertex="1">
          <mxGeometry x="696" y="1128" width="99" height="33" as="geometry" />
        </mxCell>
        <mxCell id="AcytjInfTmPCzd0XIlV4-74" value="Private subnet" style="points=[[0,0],[0.25,0],[0.5,0],[0.75,0],[1,0],[1,0.25],[1,0.5],[1,0.75],[1,1],[0.75,1],[0.5,1],[0.25,1],[0,1],[0,0.75],[0,0.5],[0,0.25]];outlineConnect=0;html=1;whiteSpace=wrap;fontSize=14;fontStyle=0;shape=mxgraph.aws4.group;grIcon=mxgraph.aws4.group_security_group;grStroke=0;strokeColor=#6c8ebf;fillColor=#dae8fc;verticalAlign=top;align=left;spacingLeft=30;dashed=0;" parent="1" vertex="1">
          <mxGeometry x="100" y="1427" width="330" height="190" as="geometry" />
        </mxCell>
        <mxCell id="AcytjInfTmPCzd0XIlV4-75" value="Security group" style="fillColor=none;strokeColor=#DD3522;verticalAlign=top;fontStyle=1;fontColor=#DD3522;fontSize=14;" parent="1" vertex="1">
          <mxGeometry x="120" y="1464" width="290" height="120" as="geometry" />
        </mxCell>
        <mxCell id="AcytjInfTmPCzd0XIlV4-76" value="" style="outlineConnect=0;dashed=0;verticalLabelPosition=bottom;verticalAlign=top;align=center;html=1;shape=mxgraph.aws3.rds_db_instance;fillColor=#2E73B8;gradientColor=none;" parent="1" vertex="1">
          <mxGeometry x="142" y="1474" width="69.75" height="66" as="geometry" />
        </mxCell>
        <mxCell id="AcytjInfTmPCzd0XIlV4-78" value="" style="outlineConnect=0;dashed=0;verticalLabelPosition=bottom;verticalAlign=top;align=center;html=1;shape=mxgraph.aws3.rds_db_instance;fillColor=#2E73B8;gradientColor=none;" parent="1" vertex="1">
          <mxGeometry x="318" y="1474" width="69.75" height="66" as="geometry" />
        </mxCell>
        <mxCell id="AcytjInfTmPCzd0XIlV4-79" value="&lt;a class=&quot;awsui-util-ml-m&quot; id=&quot;db-list-page-db-identifier-col&quot; href=&quot;https://ap-south-1.console.aws.amazon.com/rds/home?region=ap-south-1#database:id=csng-dashboard-rds-db;is-cluster=false&quot; style=&quot;font-size: 13px;&quot;&gt;csng-dashboard-rds-db&lt;/a&gt;" style="text;html=1;align=center;verticalAlign=middle;resizable=0;points=[];autosize=1;fontSize=13;fontStyle=1;fontColor=#000000;" parent="1" vertex="1">
          <mxGeometry x="108" y="1540" width="176" height="33" as="geometry" />
        </mxCell>
        <mxCell id="AcytjInfTmPCzd0XIlV4-80" value="&lt;a class=&quot;awsui-util-ml-m&quot; id=&quot;db-list-page-db-identifier-col&quot; href=&quot;https://ap-south-1.console.aws.amazon.com/rds/home?region=ap-south-1#database:id=nestlecsngproddb;is-cluster=false&quot; style=&quot;font-size: 13px;&quot;&gt;nestlecsngproddb&lt;/a&gt;" style="text;html=1;align=center;verticalAlign=middle;resizable=0;points=[];autosize=1;fontSize=13;fontStyle=1" parent="1" vertex="1">
          <mxGeometry x="275" y="1540" width="143" height="33" as="geometry" />
        </mxCell>
        <mxCell id="AcytjInfTmPCzd0XIlV4-82" value="Private subnet" style="points=[[0,0],[0.25,0],[0.5,0],[0.75,0],[1,0],[1,0.25],[1,0.5],[1,0.75],[1,1],[0.75,1],[0.5,1],[0.25,1],[0,1],[0,0.75],[0,0.5],[0,0.25]];outlineConnect=0;html=1;whiteSpace=wrap;fontSize=13;fontStyle=0;shape=mxgraph.aws4.group;grIcon=mxgraph.aws4.group_security_group;grStroke=0;strokeColor=#6c8ebf;fillColor=#dae8fc;verticalAlign=top;align=left;spacingLeft=30;dashed=0;" parent="1" vertex="1">
          <mxGeometry x="766" y="1753.5" width="110" height="189" as="geometry" />
        </mxCell>
        <mxCell id="AcytjInfTmPCzd0XIlV4-87" value="" style="fillColor=none;strokeColor=#147EBA;dashed=1;verticalAlign=top;fontStyle=1;fontColor=#147EBA;strokeWidth=3;fontSize=15;movable=1;resizable=1;rotatable=1;deletable=1;editable=1;connectable=1;rounded=1;" parent="1" vertex="1">
          <mxGeometry x="135" y="308" width="450" height="253" as="geometry" />
        </mxCell>
        <mxCell id="AcytjInfTmPCzd0XIlV4-91" value="Security group" style="fillColor=none;strokeColor=#DD3522;verticalAlign=top;fontStyle=1;fontColor=#DD3522;fontSize=12;" parent="1" vertex="1">
          <mxGeometry x="770" y="1804" width="99" height="110" as="geometry" />
        </mxCell>
        <mxCell id="MZ1Xdm0v1KdBK9hO3Rlp-56" style="edgeStyle=orthogonalEdgeStyle;rounded=0;jumpStyle=arc;jumpSize=6;orthogonalLoop=1;jettySize=auto;html=1;exitX=0.5;exitY=1;exitDx=0;exitDy=0;entryX=0.004;entryY=0.575;entryDx=0;entryDy=0;entryPerimeter=0;strokeWidth=2;fontSize=13;fontColor=#000000;startArrow=classic;startFill=1;endArrow=classic;endFill=1;sourcePerimeterSpacing=0;targetPerimeterSpacing=3;" edge="1" parent="1" source="AcytjInfTmPCzd0XIlV4-95" target="AcytjInfTmPCzd0XIlV4-96">
          <mxGeometry relative="1" as="geometry" />
        </mxCell>
        <mxCell id="AcytjInfTmPCzd0XIlV4-95" value="" style="fillColor=none;strokeColor=#147EBA;dashed=1;verticalAlign=top;fontStyle=0;fontColor=#147EBA;strokeWidth=3;rounded=1;" parent="1" vertex="1">
          <mxGeometry x="94" y="1413" width="350" height="215" as="geometry" />
        </mxCell>
        <mxCell id="MZ1Xdm0v1KdBK9hO3Rlp-49" style="edgeStyle=orthogonalEdgeStyle;rounded=0;jumpSize=6;orthogonalLoop=1;jettySize=auto;html=1;entryX=0.265;entryY=0.784;entryDx=0;entryDy=0;strokeWidth=2;fontSize=14;startArrow=classic;startFill=1;startSize=6;endSize=6;sourcePerimeterSpacing=-1;targetPerimeterSpacing=3;entryPerimeter=0;" edge="1" parent="1" source="AcytjInfTmPCzd0XIlV4-96" target="MZ1Xdm0v1KdBK9hO3Rlp-4">
          <mxGeometry relative="1" as="geometry">
            <Array as="points">
              <mxPoint x="649" y="1705" />
              <mxPoint x="649" y="1705" />
            </Array>
          </mxGeometry>
        </mxCell>
        <mxCell id="AcytjInfTmPCzd0XIlV4-96" value="" style="fillColor=none;strokeColor=#147EBA;dashed=1;verticalAlign=top;fontStyle=0;fontColor=#147EBA;fontSize=13;strokeWidth=3;rounded=1;" parent="1" vertex="1">
          <mxGeometry x="487.5" y="1727" width="205.5" height="242" as="geometry" />
        </mxCell>
        <mxCell id="AcytjInfTmPCzd0XIlV4-97" value="LIVE-App-09-Scheduler-01" style="text;html=1;align=center;verticalAlign=middle;resizable=0;points=[];autosize=1;fontSize=12;fontStyle=1" parent="1" vertex="1">
          <mxGeometry x="665" y="926" width="176" height="33" as="geometry" />
        </mxCell>
        <mxCell id="AcytjInfTmPCzd0XIlV4-99" value="LIVE-App-04" style="text;html=1;align=center;verticalAlign=middle;resizable=0;points=[];autosize=1;fontSize=13;fontStyle=1" parent="1" vertex="1">
          <mxGeometry x="766" y="1036" width="99" height="33" as="geometry" />
        </mxCell>
        <mxCell id="AcytjInfTmPCzd0XIlV4-100" value="" style="pointerEvents=1;shadow=0;dashed=0;html=1;strokeColor=none;fillColor=#005F4B;labelPosition=center;verticalLabelPosition=bottom;verticalAlign=top;align=center;outlineConnect=0;shape=mxgraph.veeam2.datacenter;fontSize=13;" parent="1" vertex="1">
          <mxGeometry x="318.5" y="-120" width="83" height="53" as="geometry" />
        </mxCell>
        <mxCell id="YEiA6fVM-5rXdiScWKsi-7" style="edgeStyle=orthogonalEdgeStyle;rounded=0;jumpSize=6;orthogonalLoop=1;jettySize=auto;html=1;entryX=0.5;entryY=0;entryDx=0;entryDy=0;entryPerimeter=0;strokeWidth=2;startArrow=block;startFill=1;startSize=6;endSize=8;sourcePerimeterSpacing=0;targetPerimeterSpacing=0;" parent="1" source="AcytjInfTmPCzd0XIlV4-101" target="AcytjInfTmPCzd0XIlV4-130" edge="1">
          <mxGeometry relative="1" as="geometry" />
        </mxCell>
        <mxCell id="AcytjInfTmPCzd0XIlV4-101" value="" style="outlineConnect=0;dashed=0;verticalLabelPosition=bottom;verticalAlign=top;align=center;html=1;shape=mxgraph.aws3.users;fillColor=#D2D3D3;gradientColor=none;strokeWidth=3;fontSize=13;fontFamily=Georgia;" parent="1" vertex="1">
          <mxGeometry x="669.5" y="-90" width="66" height="63" as="geometry" />
        </mxCell>
        <mxCell id="AcytjInfTmPCzd0XIlV4-102" value="" style="outlineConnect=0;dashed=0;verticalLabelPosition=bottom;verticalAlign=top;align=center;html=1;shape=mxgraph.aws3.s3;fillColor=#E05243;gradientColor=none;strokeWidth=3;fontSize=13;" parent="1" vertex="1">
          <mxGeometry x="1080" y="1000" width="76.5" height="93" as="geometry" />
        </mxCell>
        <mxCell id="AcytjInfTmPCzd0XIlV4-103" value="" style="outlineConnect=0;dashed=0;verticalLabelPosition=bottom;verticalAlign=top;align=center;html=1;shape=mxgraph.aws3.cloudwatch;fillColor=#759C3E;gradientColor=none;strokeWidth=3;fontSize=13;" parent="1" vertex="1">
          <mxGeometry x="970" y="1140" width="60" height="70" as="geometry" />
        </mxCell>
        <mxCell id="AcytjInfTmPCzd0XIlV4-104" value="" style="outlineConnect=0;dashed=0;verticalLabelPosition=bottom;verticalAlign=top;align=center;html=1;shape=mxgraph.aws3.sns;fillColor=#D9A741;gradientColor=none;strokeWidth=3;fontSize=13;" parent="1" vertex="1">
          <mxGeometry x="959" y="928" width="60" height="76.5" as="geometry" />
        </mxCell>
        <mxCell id="AcytjInfTmPCzd0XIlV4-105" value="" style="outlineConnect=0;dashed=0;verticalLabelPosition=bottom;verticalAlign=top;align=center;html=1;shape=mxgraph.aws3.email_notification;fillColor=#D9A741;gradientColor=none;strokeWidth=3;fontSize=13;" parent="1" vertex="1">
          <mxGeometry x="948" y="650" width="82" height="63" as="geometry" />
        </mxCell>
        <mxCell id="AcytjInfTmPCzd0XIlV4-106" value="" style="edgeStyle=orthogonalEdgeStyle;html=1;endArrow=block;elbow=vertical;startArrow=block;startFill=1;endFill=1;strokeColor=#000000;rounded=0;fontSize=13;exitX=0.5;exitY=1;exitDx=0;exitDy=0;exitPerimeter=0;entryX=0.5;entryY=0;entryDx=0;entryDy=0;entryPerimeter=0;strokeWidth=2;" parent="1" source="AcytjInfTmPCzd0XIlV4-105" target="AcytjInfTmPCzd0XIlV4-104" edge="1">
          <mxGeometry width="100" relative="1" as="geometry">
            <mxPoint x="950" y="830" as="sourcePoint" />
            <mxPoint x="1050" y="830" as="targetPoint" />
          </mxGeometry>
        </mxCell>
        <mxCell id="AcytjInfTmPCzd0XIlV4-107" value="" style="edgeStyle=orthogonalEdgeStyle;html=1;endArrow=block;elbow=vertical;startArrow=block;startFill=1;endFill=1;strokeColor=#000000;rounded=0;fontSize=13;entryX=0.35;entryY=0;entryDx=0;entryDy=0;entryPerimeter=0;jumpSize=12;targetPerimeterSpacing=0;endSize=8;sourcePerimeterSpacing=0;strokeWidth=2;" parent="1" target="AcytjInfTmPCzd0XIlV4-103" edge="1">
          <mxGeometry width="100" relative="1" as="geometry">
            <mxPoint x="991" y="1000" as="sourcePoint" />
            <mxPoint x="1040" y="1060" as="targetPoint" />
          </mxGeometry>
        </mxCell>
        <mxCell id="AcytjInfTmPCzd0XIlV4-108" value="" style="edgeStyle=orthogonalEdgeStyle;html=1;endArrow=block;elbow=vertical;startArrow=block;startFill=1;endFill=1;strokeColor=#000000;rounded=0;fontSize=13;strokeWidth=2;" parent="1" edge="1">
          <mxGeometry width="100" relative="1" as="geometry">
            <mxPoint x="930" y="1190" as="sourcePoint" />
            <mxPoint x="970" y="1190" as="targetPoint" />
          </mxGeometry>
        </mxCell>
        <mxCell id="AcytjInfTmPCzd0XIlV4-109" value="" style="edgeStyle=orthogonalEdgeStyle;html=1;endArrow=block;elbow=vertical;startArrow=block;startFill=1;endFill=1;strokeColor=#000000;rounded=0;fontSize=13;fontColor=#000000;strokeWidth=2;" parent="1" target="AcytjInfTmPCzd0XIlV4-102" edge="1">
          <mxGeometry width="100" relative="1" as="geometry">
            <mxPoint x="1052" y="1046" as="sourcePoint" />
            <mxPoint x="1122" y="1046.4285714285716" as="targetPoint" />
          </mxGeometry>
        </mxCell>
        <mxCell id="AcytjInfTmPCzd0XIlV4-130" value="" style="outlineConnect=0;dashed=0;verticalLabelPosition=bottom;verticalAlign=top;align=center;html=1;shape=mxgraph.aws3.classic_load_balancer;fillColor=#F58534;gradientColor=none;strokeWidth=3;fontSize=13;" parent="1" vertex="1">
          <mxGeometry x="668" y="260" width="69" height="72" as="geometry" />
        </mxCell>
        <mxCell id="AcytjInfTmPCzd0XIlV4-134" value="" style="edgeStyle=orthogonalEdgeStyle;html=1;endArrow=block;elbow=vertical;startArrow=block;startFill=1;endFill=1;strokeColor=#000000;rounded=0;fontSize=13;exitX=0.5;exitY=1;exitDx=0;exitDy=0;strokeWidth=2;" parent="1" source="AcytjInfTmPCzd0XIlV4-87" target="AcytjInfTmPCzd0XIlV4-9" edge="1">
          <mxGeometry width="100" relative="1" as="geometry">
            <mxPoint x="370" y="610" as="sourcePoint" />
            <mxPoint x="470" y="610" as="targetPoint" />
          </mxGeometry>
        </mxCell>
        <mxCell id="AcytjInfTmPCzd0XIlV4-137" value="" style="edgeStyle=orthogonalEdgeStyle;html=1;endArrow=block;elbow=vertical;startArrow=block;startFill=1;endFill=1;strokeColor=#000000;rounded=0;fontSize=13;strokeWidth=2;" parent="1" source="AcytjInfTmPCzd0XIlV4-100" target="AcytjInfTmPCzd0XIlV4-87" edge="1">
          <mxGeometry width="100" relative="1" as="geometry">
            <mxPoint x="210" y="190" as="sourcePoint" />
            <mxPoint x="310" y="190" as="targetPoint" />
          </mxGeometry>
        </mxCell>
        <mxCell id="MZ1Xdm0v1KdBK9hO3Rlp-25" style="edgeStyle=orthogonalEdgeStyle;rounded=0;orthogonalLoop=1;jettySize=auto;html=1;entryX=0;entryY=0.5;entryDx=0;entryDy=0;strokeWidth=2;fontSize=15;startArrow=classic;startFill=1;targetPerimeterSpacing=0;sourcePerimeterSpacing=-9;startSize=6;" edge="1" parent="1" target="YEiA6fVM-5rXdiScWKsi-66">
          <mxGeometry relative="1" as="geometry">
            <mxPoint x="339.9999999999998" y="1413" as="sourcePoint" />
            <Array as="points">
              <mxPoint x="340" y="1309" />
              <mxPoint x="489" y="1309" />
              <mxPoint x="489" y="952" />
            </Array>
          </mxGeometry>
        </mxCell>
        <mxCell id="AcytjInfTmPCzd0XIlV4-148" value="Botree network" style="text;html=1;align=center;verticalAlign=middle;resizable=0;points=[];autosize=1;fontSize=18;strokeWidth=3;perimeterSpacing=2;fontStyle=0;fontFamily=Georgia;" parent="1" vertex="1">
          <mxGeometry x="293" y="-150" width="143" height="33" as="geometry" />
        </mxCell>
        <mxCell id="AcytjInfTmPCzd0XIlV4-149" value="users" style="text;html=1;align=center;verticalAlign=middle;resizable=0;points=[];autosize=1;fontSize=15;fontStyle=0;fontFamily=Georgia;" parent="1" vertex="1">
          <mxGeometry x="671" y="-123" width="55" height="33" as="geometry" />
        </mxCell>
        <mxCell id="AcytjInfTmPCzd0XIlV4-150" value="&lt;b&gt;&lt;font style=&quot;font-size: 20px&quot;&gt;s3&lt;/font&gt;&lt;/b&gt;" style="text;html=1;align=center;verticalAlign=middle;resizable=0;points=[];autosize=1;fontSize=13;" parent="1" vertex="1">
          <mxGeometry x="1100" y="1100" width="40" height="20" as="geometry" />
        </mxCell>
        <mxCell id="AcytjInfTmPCzd0XIlV4-151" value="&lt;font style=&quot;font-size: 20px&quot;&gt;cloudwatch&lt;/font&gt;" style="text;html=1;align=center;verticalAlign=middle;resizable=0;points=[];autosize=1;fontSize=13;" parent="1" vertex="1">
          <mxGeometry x="929" y="1223" width="120" height="20" as="geometry" />
        </mxCell>
        <mxCell id="AcytjInfTmPCzd0XIlV4-152" value="&lt;span style=&quot;font-size: 20px&quot;&gt;SNS&lt;/span&gt;" style="text;html=1;align=center;verticalAlign=middle;resizable=0;points=[];autosize=1;fontSize=13;" parent="1" vertex="1">
          <mxGeometry x="989" y="1004.5" width="60" height="20" as="geometry" />
        </mxCell>
        <mxCell id="AcytjInfTmPCzd0XIlV4-155" value="&lt;span style=&quot;font-size: 20px&quot;&gt;Email&lt;/span&gt;" style="text;html=1;align=center;verticalAlign=middle;resizable=0;points=[];autosize=1;fontSize=13;" parent="1" vertex="1">
          <mxGeometry x="960" y="630" width="70" height="20" as="geometry" />
        </mxCell>
        <mxCell id="AcytjInfTmPCzd0XIlV4-157" value="&lt;span style=&quot;font-size: 20px&quot;&gt;classic load balance&lt;/span&gt;" style="text;html=1;align=center;verticalAlign=middle;resizable=0;points=[];autosize=1;fontSize=13;fontStyle=0;fontFamily=Garamond;" parent="1" vertex="1">
          <mxGeometry x="519.5" y="227" width="176" height="33" as="geometry" />
        </mxCell>
        <mxCell id="YEiA6fVM-5rXdiScWKsi-16" value="Security group" style="fillColor=none;strokeColor=#DD3522;verticalAlign=top;fontStyle=1;fontColor=#DD3522;fontSize=14;" parent="1" vertex="1">
          <mxGeometry x="631" y="737" width="240" height="483" as="geometry" />
        </mxCell>
        <mxCell id="YEiA6fVM-5rXdiScWKsi-18" value="Security group" style="fillColor=none;strokeColor=#DD3522;verticalAlign=top;fontStyle=1;fontColor=#DD3522;fontSize=14;" parent="1" vertex="1">
          <mxGeometry x="185" y="730" width="240" height="480" as="geometry" />
        </mxCell>
        <mxCell id="YEiA6fVM-5rXdiScWKsi-21" value="AZ-1A" style="text;html=1;strokeColor=none;fillColor=none;align=center;verticalAlign=middle;whiteSpace=wrap;rounded=0;fontSize=13;fontColor=#000000;fontStyle=1" parent="1" vertex="1">
          <mxGeometry x="275" y="707" width="60" height="30" as="geometry" />
        </mxCell>
        <mxCell id="YEiA6fVM-5rXdiScWKsi-29" value="AZ-1B" style="text;html=1;strokeColor=none;fillColor=none;align=center;verticalAlign=middle;whiteSpace=wrap;rounded=0;fontSize=13;fontColor=#000000;fontStyle=1" parent="1" vertex="1">
          <mxGeometry x="725" y="713" width="60" height="30" as="geometry" />
        </mxCell>
        <mxCell id="YEiA6fVM-5rXdiScWKsi-31" value="READ-REPLICA" style="text;html=1;strokeColor=none;fillColor=none;align=center;verticalAlign=middle;whiteSpace=wrap;rounded=0;fontSize=12;fontColor=#000000;fontStyle=1" parent="1" vertex="1">
          <mxGeometry x="789" y="1875" width="80" height="30" as="geometry" />
        </mxCell>
        <mxCell id="YEiA6fVM-5rXdiScWKsi-32" value="AZ-1A" style="text;html=1;strokeColor=none;fillColor=none;align=center;verticalAlign=middle;whiteSpace=wrap;rounded=0;fontSize=13;fontColor=#000000;fontStyle=1" parent="1" vertex="1">
          <mxGeometry x="320" y="320" width="60" height="30" as="geometry" />
        </mxCell>
        <mxCell id="MZ1Xdm0v1KdBK9hO3Rlp-24" style="edgeStyle=orthogonalEdgeStyle;rounded=0;orthogonalLoop=1;jettySize=auto;html=1;entryX=0.34;entryY=0.943;entryDx=0;entryDy=0;entryPerimeter=0;fontSize=15;strokeWidth=2;startArrow=classic;startFill=1;" edge="1" parent="1" source="YEiA6fVM-5rXdiScWKsi-33" target="YEiA6fVM-5rXdiScWKsi-65">
          <mxGeometry relative="1" as="geometry" />
        </mxCell>
        <mxCell id="YEiA6fVM-5rXdiScWKsi-33" value="AZ-1A" style="text;html=1;strokeColor=none;fillColor=none;align=center;verticalAlign=middle;whiteSpace=wrap;rounded=0;fontSize=13;fontColor=#000000;fontStyle=1" parent="1" vertex="1">
          <mxGeometry x="225" y="1413" width="60" height="30" as="geometry" />
        </mxCell>
        <mxCell id="YEiA6fVM-5rXdiScWKsi-34" value="" style="endArrow=none;startArrow=classic;html=1;rounded=0;strokeColor=#000000;strokeWidth=2;fontSize=12;fontColor=#000000;startSize=6;endSize=6;sourcePerimeterSpacing=0;targetPerimeterSpacing=0;jumpStyle=none;jumpSize=6;endFill=0;" parent="1" edge="1">
          <mxGeometry width="50" height="50" relative="1" as="geometry">
            <mxPoint x="426" y="860" as="sourcePoint" />
            <mxPoint x="510" y="860" as="targetPoint" />
          </mxGeometry>
        </mxCell>
        <mxCell id="YEiA6fVM-5rXdiScWKsi-37" value="" style="endArrow=classic;startArrow=classic;html=1;rounded=0;strokeColor=#000000;strokeWidth=2;fontSize=12;fontColor=#000000;startSize=6;endSize=6;sourcePerimeterSpacing=0;targetPerimeterSpacing=-20;jumpStyle=none;jumpSize=6;entryX=0.75;entryY=0;entryDx=0;entryDy=0;" parent="1" source="YEiA6fVM-5rXdiScWKsi-39" target="AcytjInfTmPCzd0XIlV4-9" edge="1">
          <mxGeometry width="50" height="50" relative="1" as="geometry">
            <mxPoint x="825" y="-30" as="sourcePoint" />
            <mxPoint x="530" y="770" as="targetPoint" />
          </mxGeometry>
        </mxCell>
        <mxCell id="YEiA6fVM-5rXdiScWKsi-39" value="" style="outlineConnect=0;dashed=0;verticalLabelPosition=bottom;verticalAlign=top;align=center;html=1;shape=mxgraph.aws3.users;fillColor=#D2D3D3;gradientColor=none;strokeWidth=3;fontSize=13;" parent="1" vertex="1">
          <mxGeometry x="790" y="-90" width="66" height="63" as="geometry" />
        </mxCell>
        <mxCell id="YEiA6fVM-5rXdiScWKsi-44" value="Port: 22" style="text;html=1;align=center;verticalAlign=middle;resizable=0;points=[];autosize=1;fontSize=15;fontStyle=1;fontFamily=Times New Roman;" parent="1" vertex="1">
          <mxGeometry x="284" y="-27" width="77" height="33" as="geometry" />
        </mxCell>
        <mxCell id="YEiA6fVM-5rXdiScWKsi-46" value="Other service" style="text;html=1;align=center;verticalAlign=middle;resizable=0;points=[];autosize=1;fontSize=15;fontStyle=0;fontFamily=Georgia;" parent="1" vertex="1">
          <mxGeometry x="773" y="-143" width="110" height="33" as="geometry" />
        </mxCell>
        <mxCell id="YEiA6fVM-5rXdiScWKsi-48" value="" style="sketch=0;outlineConnect=0;fontColor=#232F3E;gradientColor=none;fillColor=#4D27AA;strokeColor=none;dashed=0;verticalLabelPosition=bottom;verticalAlign=top;align=center;html=1;fontSize=12;fontStyle=0;aspect=fixed;pointerEvents=1;shape=mxgraph.aws4.internet_gateway;shadow=0;labelBackgroundColor=none;strokeWidth=3;" parent="1" vertex="1">
          <mxGeometry x="241" y="88" width="55" height="55" as="geometry" />
        </mxCell>
        <mxCell id="YEiA6fVM-5rXdiScWKsi-49" value="Internet Gateway" style="text;html=1;align=center;verticalAlign=middle;resizable=0;points=[];autosize=1;fontSize=14;fontStyle=1;fontFamily=Garamond;" parent="1" vertex="1">
          <mxGeometry x="203" y="143" width="132" height="33" as="geometry" />
        </mxCell>
        <mxCell id="YEiA6fVM-5rXdiScWKsi-50" value="Port: 443" style="text;html=1;align=center;verticalAlign=middle;resizable=0;points=[];autosize=1;fontSize=14;fontStyle=0;fontFamily=Georgia;" parent="1" vertex="1">
          <mxGeometry x="600" y="-50" width="88" height="33" as="geometry" />
        </mxCell>
        <mxCell id="YEiA6fVM-5rXdiScWKsi-52" value="sds.nestle.in" style="text;html=1;align=center;verticalAlign=middle;resizable=0;points=[];autosize=1;fontSize=14;fontStyle=0;fontFamily=Georgia;" parent="1" vertex="1">
          <mxGeometry x="596.5" y="-29" width="99" height="33" as="geometry" />
        </mxCell>
        <mxCell id="YEiA6fVM-5rXdiScWKsi-53" value="sdsuat.nestle.in" style="text;html=1;align=center;verticalAlign=middle;resizable=0;points=[];autosize=1;fontSize=14;fontStyle=0;fontFamily=Georgia;" parent="1" vertex="1">
          <mxGeometry x="583.5" y="-10" width="121" height="33" as="geometry" />
        </mxCell>
        <mxCell id="YEiA6fVM-5rXdiScWKsi-54" value="Port:&amp;nbsp;22056" style="text;html=1;align=center;verticalAlign=middle;resizable=0;points=[];autosize=1;fontSize=15;fontStyle=0;fontFamily=Times New Roman;" parent="1" vertex="1">
          <mxGeometry x="858" y="-90" width="99" height="33" as="geometry" />
        </mxCell>
        <mxCell id="YEiA6fVM-5rXdiScWKsi-58" value="Port:&amp;nbsp;28080" style="text;html=1;align=center;verticalAlign=middle;resizable=0;points=[];autosize=1;fontSize=15;fontStyle=0;fontFamily=Times New Roman;" parent="1" vertex="1">
          <mxGeometry x="860" y="-73" width="99" height="33" as="geometry" />
        </mxCell>
        <mxCell id="YEiA6fVM-5rXdiScWKsi-59" value="Port:&amp;nbsp;3003" style="text;html=1;align=center;verticalAlign=middle;resizable=0;points=[];autosize=1;fontSize=15;fontStyle=0;fontFamily=Times New Roman;" parent="1" vertex="1">
          <mxGeometry x="861" y="-43" width="88" height="33" as="geometry" />
        </mxCell>
        <mxCell id="YEiA6fVM-5rXdiScWKsi-60" value="Port:&amp;nbsp;22052 - 22054" style="text;html=1;align=center;verticalAlign=middle;resizable=0;points=[];autosize=1;fontSize=15;fontStyle=0;fontFamily=Times New Roman;" parent="1" vertex="1">
          <mxGeometry x="864" y="-12" width="143" height="33" as="geometry" />
        </mxCell>
        <mxCell id="YEiA6fVM-5rXdiScWKsi-61" value="Port:&amp;nbsp;2060 - 2061" style="text;html=1;align=center;verticalAlign=middle;resizable=0;points=[];autosize=1;fontSize=15;fontStyle=0;fontFamily=Times New Roman;" parent="1" vertex="1">
          <mxGeometry x="861" y="-27" width="132" height="33" as="geometry" />
        </mxCell>
        <mxCell id="YEiA6fVM-5rXdiScWKsi-62" value="Port:&amp;nbsp;23003" style="text;html=1;align=center;verticalAlign=middle;resizable=0;points=[];autosize=1;fontSize=15;fontStyle=0;fontFamily=Times New Roman;" parent="1" vertex="1">
          <mxGeometry x="860" y="-57" width="99" height="33" as="geometry" />
        </mxCell>
        <mxCell id="YEiA6fVM-5rXdiScWKsi-63" value="Port:&amp;nbsp;2052" style="text;html=1;align=center;verticalAlign=middle;resizable=0;points=[];autosize=1;fontSize=15;fontStyle=0;fontFamily=Times New Roman;" parent="1" vertex="1">
          <mxGeometry x="861" y="-106" width="88" height="33" as="geometry" />
        </mxCell>
        <mxCell id="YEiA6fVM-5rXdiScWKsi-64" value="Nestle CSNG Diagram" style="text;html=1;align=center;verticalAlign=middle;resizable=0;points=[];autosize=1;fontSize=22;strokeWidth=3;perimeterSpacing=2;fontStyle=1;fontFamily=Courier New;" parent="1" vertex="1">
          <mxGeometry x="-34" y="-198" width="275" height="44" as="geometry" />
        </mxCell>
        <mxCell id="MZ1Xdm0v1KdBK9hO3Rlp-43" style="edgeStyle=orthogonalEdgeStyle;rounded=0;jumpSize=6;orthogonalLoop=1;jettySize=auto;html=1;exitX=1;exitY=0.75;exitDx=0;exitDy=0;entryX=0;entryY=0.75;entryDx=0;entryDy=0;strokeWidth=2;fontSize=14;startArrow=classic;startFill=1;startSize=6;endSize=6;sourcePerimeterSpacing=0;targetPerimeterSpacing=0;" edge="1" parent="1" source="YEiA6fVM-5rXdiScWKsi-65" target="YEiA6fVM-5rXdiScWKsi-66">
          <mxGeometry relative="1" as="geometry" />
        </mxCell>
        <mxCell id="YEiA6fVM-5rXdiScWKsi-65" value="Zone -1A" style="fillColor=none;strokeColor=#147EBA;dashed=1;verticalAlign=top;fontStyle=0;fontColor=#000000;shadow=0;labelBackgroundColor=none;sketch=0;strokeWidth=3;fontSize=22;rounded=1;" parent="1" vertex="1">
          <mxGeometry x="154" y="660" width="297" height="583" as="geometry" />
        </mxCell>
        <mxCell id="YEiA6fVM-5rXdiScWKsi-66" value="Zone -1B" style="fillColor=none;strokeColor=#147EBA;dashed=1;verticalAlign=top;fontStyle=0;fontColor=#000000;shadow=0;labelBackgroundColor=none;sketch=0;strokeWidth=3;fontSize=22;rounded=1;" parent="1" vertex="1">
          <mxGeometry x="594" y="660" width="308" height="583" as="geometry" />
        </mxCell>
        <mxCell id="YEiA6fVM-5rXdiScWKsi-71" value="end" style="text;html=1;align=center;verticalAlign=middle;resizable=0;points=[];autosize=1;strokeColor=none;fillColor=none;fontSize=5;fontColor=#000000;" parent="1" vertex="1">
          <mxGeometry x="1166" y="2112" width="33" height="22" as="geometry" />
        </mxCell>
        <mxCell id="YEiA6fVM-5rXdiScWKsi-72" value="" style="sketch=0;points=[[0,0,0],[0.25,0,0],[0.5,0,0],[0.75,0,0],[1,0,0],[0,1,0],[0.25,1,0],[0.5,1,0],[0.75,1,0],[1,1,0],[0,0.25,0],[0,0.5,0],[0,0.75,0],[1,0.25,0],[1,0.5,0],[1,0.75,0]];outlineConnect=0;fontColor=#232F3E;gradientColor=#F54749;gradientDirection=north;fillColor=#C7131F;strokeColor=#ffffff;dashed=0;verticalLabelPosition=bottom;verticalAlign=top;align=center;html=1;fontSize=12;fontStyle=0;aspect=fixed;shape=mxgraph.aws4.resourceIcon;resIcon=mxgraph.aws4.firewall_manager;rounded=1;shadow=0;labelBackgroundColor=none;strokeWidth=3;fontFamily=Times New Roman;" parent="1" vertex="1">
          <mxGeometry x="565" y="88" width="55" height="55" as="geometry" />
        </mxCell>
        <mxCell id="MZ1Xdm0v1KdBK9hO3Rlp-45" style="edgeStyle=orthogonalEdgeStyle;rounded=0;jumpSize=6;orthogonalLoop=1;jettySize=auto;html=1;strokeWidth=2;fontSize=14;startArrow=classic;startFill=1;startSize=6;endSize=6;sourcePerimeterSpacing=-1;targetPerimeterSpacing=3;" edge="1" parent="1" source="MZ1Xdm0v1KdBK9hO3Rlp-3">
          <mxGeometry relative="1" as="geometry">
            <mxPoint x="704" y="1324" as="sourcePoint" />
            <mxPoint x="517" y="1098" as="targetPoint" />
          </mxGeometry>
        </mxCell>
        <mxCell id="MZ1Xdm0v1KdBK9hO3Rlp-47" value="" style="edgeStyle=orthogonalEdgeStyle;rounded=0;jumpSize=6;orthogonalLoop=1;jettySize=auto;html=1;strokeWidth=2;fontSize=14;startArrow=classic;startFill=1;startSize=6;endSize=6;sourcePerimeterSpacing=-1;targetPerimeterSpacing=3;" edge="1" parent="1" source="MZ1Xdm0v1KdBK9hO3Rlp-3" target="MZ1Xdm0v1KdBK9hO3Rlp-4">
          <mxGeometry relative="1" as="geometry">
            <Array as="points">
              <mxPoint x="746" y="1397" />
              <mxPoint x="746" y="1397" />
            </Array>
          </mxGeometry>
        </mxCell>
        <mxCell id="MZ1Xdm0v1KdBK9hO3Rlp-3" value="" style="sketch=0;outlineConnect=0;fontColor=#232F3E;gradientColor=none;fillColor=#4D27AA;strokeColor=none;dashed=0;verticalLabelPosition=bottom;verticalAlign=top;align=center;html=1;fontSize=12;fontStyle=0;aspect=fixed;pointerEvents=1;shape=mxgraph.aws4.network_load_balancer;" vertex="1" parent="1">
          <mxGeometry x="707" y="1287" width="78" height="78" as="geometry" />
        </mxCell>
        <mxCell id="MZ1Xdm0v1KdBK9hO3Rlp-4" value="AZ-1B" style="fillColor=none;strokeColor=#147EBA;dashed=1;verticalAlign=top;fontStyle=1;fontColor=#000000;strokeWidth=3;rounded=1;fontSize=13;" vertex="1" parent="1">
          <mxGeometry x="561.5" y="1409.75" width="330" height="264.5" as="geometry" />
        </mxCell>
        <mxCell id="MZ1Xdm0v1KdBK9hO3Rlp-9" value="Private subnet" style="points=[[0,0],[0.25,0],[0.5,0],[0.75,0],[1,0],[1,0.25],[1,0.5],[1,0.75],[1,1],[0.75,1],[0.5,1],[0.25,1],[0,1],[0,0.75],[0,0.5],[0,0.25]];outlineConnect=0;gradientColor=none;html=1;whiteSpace=wrap;fontSize=12;fontStyle=0;container=1;pointerEvents=0;collapsible=0;recursiveResize=0;shape=mxgraph.aws4.group;grIcon=mxgraph.aws4.group_security_group;grStroke=0;strokeColor=#147EBA;fillColor=#E6F2F8;verticalAlign=top;align=left;spacingLeft=30;fontColor=#147EBA;dashed=0;rounded=1;strokeWidth=3;" vertex="1" parent="1">
          <mxGeometry x="501" y="1755" width="189.5" height="192" as="geometry" />
        </mxCell>
        <mxCell id="MZ1Xdm0v1KdBK9hO3Rlp-33" value="" style="outlineConnect=0;dashed=0;verticalLabelPosition=bottom;verticalAlign=top;align=center;html=1;shape=mxgraph.aws3.rds_db_instance;fillColor=#2E73B8;gradientColor=none;rounded=1;shadow=0;sketch=0;strokeWidth=3;fontSize=15;" vertex="1" parent="MZ1Xdm0v1KdBK9hO3Rlp-9">
          <mxGeometry x="60.5" y="60" width="49.5" height="47" as="geometry" />
        </mxCell>
        <mxCell id="MZ1Xdm0v1KdBK9hO3Rlp-35" value="Security group" style="fillColor=none;strokeColor=#DD3522;verticalAlign=top;fontStyle=0;fontColor=#DD3522;rounded=0;shadow=0;sketch=0;strokeWidth=3;fontSize=15;" vertex="1" parent="MZ1Xdm0v1KdBK9hO3Rlp-9">
          <mxGeometry x="5" y="32.75" width="171" height="132.25" as="geometry" />
        </mxCell>
        <mxCell id="MZ1Xdm0v1KdBK9hO3Rlp-38" value="&lt;a style=&quot;border-color: var(--border-color); font-size: 12px; font-weight: 700;&quot; class=&quot;awsui-util-ml-m&quot; id=&quot;db-list-page-db-identifier-col&quot; href=&quot;https://ap-south-1.console.aws.amazon.com/rds/home?region=ap-south-1#database:id=nestlecsngproddbreadreplica;is-cluster=false&quot;&gt;nestlecsngproddbreadreplica&lt;/a&gt;" style="text;html=1;align=center;verticalAlign=middle;resizable=0;points=[];autosize=1;fontSize=13;" vertex="1" parent="MZ1Xdm0v1KdBK9hO3Rlp-9">
          <mxGeometry x="-8.5" y="104" width="198" height="33" as="geometry" />
        </mxCell>
        <mxCell id="MZ1Xdm0v1KdBK9hO3Rlp-48" style="edgeStyle=orthogonalEdgeStyle;rounded=0;jumpSize=6;orthogonalLoop=1;jettySize=auto;html=1;exitX=0.398;exitY=0.001;exitDx=0;exitDy=0;strokeWidth=2;fontSize=14;startArrow=classic;startFill=1;startSize=6;endSize=6;sourcePerimeterSpacing=-1;targetPerimeterSpacing=3;entryX=0.732;entryY=0.784;entryDx=0;entryDy=0;entryPerimeter=0;exitPerimeter=0;" edge="1" parent="1" source="MZ1Xdm0v1KdBK9hO3Rlp-12" target="MZ1Xdm0v1KdBK9hO3Rlp-4">
          <mxGeometry relative="1" as="geometry">
            <Array as="points" />
          </mxGeometry>
        </mxCell>
        <mxCell id="MZ1Xdm0v1KdBK9hO3Rlp-12" value="AZ - 1B" style="fillColor=none;strokeColor=#147EBA;dashed=1;verticalAlign=top;fontStyle=1;fontColor=#000000;strokeWidth=3;rounded=1;" vertex="1" parent="1">
          <mxGeometry x="739.88" y="1729.75" width="159.25" height="242.5" as="geometry" />
        </mxCell>
        <mxCell id="MZ1Xdm0v1KdBK9hO3Rlp-17" value="" style="sketch=0;outlineConnect=0;fontColor=#232F3E;gradientColor=none;fillColor=#D45B07;strokeColor=none;dashed=0;verticalLabelPosition=bottom;verticalAlign=top;align=center;html=1;fontSize=12;fontStyle=0;aspect=fixed;pointerEvents=1;shape=mxgraph.aws4.m5_instance;rounded=1;shadow=0;strokeWidth=3;" vertex="1" parent="1">
          <mxGeometry x="801" y="1827" width="48" height="48" as="geometry" />
        </mxCell>
        <mxCell id="MZ1Xdm0v1KdBK9hO3Rlp-27" value="Port : 3306" style="text;html=1;strokeColor=none;fillColor=none;align=center;verticalAlign=middle;whiteSpace=wrap;rounded=0;fontSize=13;fontColor=#000000;fontStyle=1" vertex="1" parent="1">
          <mxGeometry x="255" y="1335" width="75" height="30" as="geometry" />
        </mxCell>
        <mxCell id="MZ1Xdm0v1KdBK9hO3Rlp-40" value="&lt;span style=&quot;font-size: 14px;&quot;&gt;Firewall&lt;/span&gt;" style="text;html=1;align=center;verticalAlign=middle;resizable=0;points=[];autosize=1;fontSize=14;fontStyle=1;fontFamily=Garamond;strokeWidth=1;" vertex="1" parent="1">
          <mxGeometry x="558.5" y="143" width="77" height="33" as="geometry" />
        </mxCell>
        <mxCell id="MZ1Xdm0v1KdBK9hO3Rlp-50" value="&lt;font style=&quot;font-size: 13px;&quot;&gt;AZ - 1B&lt;/font&gt;" style="text;html=1;align=center;verticalAlign=middle;resizable=0;points=[];autosize=1;fontSize=13;fontStyle=1" vertex="1" parent="1">
          <mxGeometry x="559.5" y="1727.5" width="66" height="33" as="geometry" />
        </mxCell>
        <mxCell id="MZ1Xdm0v1KdBK9hO3Rlp-51" value="&lt;span style=&quot;font-size: 20px;&quot;&gt;NETWORK&lt;br&gt;LOAD&lt;br&gt;BALANCER&lt;br&gt;&lt;/span&gt;" style="text;html=1;align=center;verticalAlign=middle;resizable=0;points=[];autosize=1;fontSize=13;fontStyle=1" vertex="1" parent="1">
          <mxGeometry x="776" y="1282" width="132" height="88" as="geometry" />
        </mxCell>
        <mxCell id="MZ1Xdm0v1KdBK9hO3Rlp-52" value="" style="endArrow=classic;dashed=1;html=1;rounded=0;strokeWidth=2;fontSize=13;fontColor=#000000;sourcePerimeterSpacing=-1;targetPerimeterSpacing=3;jumpSize=6;entryX=0.87;entryY=0.004;entryDx=0;entryDy=0;entryPerimeter=0;startArrow=classic;startFill=1;endFill=1;" edge="1" parent="1" target="AcytjInfTmPCzd0XIlV4-96">
          <mxGeometry width="50" height="50" relative="1" as="geometry">
            <mxPoint x="803" y="1617" as="sourcePoint" />
            <mxPoint x="809" y="1474" as="targetPoint" />
          </mxGeometry>
        </mxCell>
        <mxCell id="MZ1Xdm0v1KdBK9hO3Rlp-55" value="" style="endArrow=classic;dashed=1;html=1;rounded=0;strokeWidth=2;fontSize=13;fontColor=#000000;startSize=6;endSize=6;sourcePerimeterSpacing=0;targetPerimeterSpacing=3;jumpSize=6;exitX=0.25;exitY=0;exitDx=0;exitDy=0;entryX=0.265;entryY=0.784;entryDx=0;entryDy=0;entryPerimeter=0;startArrow=classic;startFill=1;endFill=1;jumpStyle=arc;spacingTop=0;spacingBottom=0;spacingLeft=0;spacingRight=0;" edge="1" parent="1" source="MZ1Xdm0v1KdBK9hO3Rlp-12" target="MZ1Xdm0v1KdBK9hO3Rlp-4">
          <mxGeometry width="50" height="50" relative="1" as="geometry">
            <mxPoint x="759" y="1678" as="sourcePoint" />
            <mxPoint x="809" y="1628" as="targetPoint" />
          </mxGeometry>
        </mxCell>
      </root>
    </mxGraphModel>
  </diagram>
</mxfile>
